<?xml version="1.0" encoding="UTF-8"?>
<svg xmlns="http://www.w3.org/2000/svg" xmlns:xlink="http://www.w3.org/1999/xlink" width="20px" height="20px" viewBox="0 0 20 20" version="1.1">
<g id="surface1">
<path style=" stroke:none;fill-rule:nonzero;fill:rgb(0%,34.901961%,61.176471%);fill-opacity:1;" d="M 18.800781 15 C 18.898438 14.800781 19 14.5 19 14.199219 L 19 5.800781 C 19 5.601562 18.898438 5.300781 18.800781 5 L 10 10 Z M 18.800781 15 "/>
<path style=" stroke:none;fill-rule:nonzero;fill:rgb(0%,26.666667%,50.980392%);fill-opacity:1;" d="M 10.800781 19.800781 L 18.199219 15.601562 C 18.398438 15.5 18.601562 15.300781 18.800781 15 L 10 10 L 1.199219 15 C 1.300781 15.199219 1.5 15.5 1.800781 15.601562 L 9.199219 19.800781 C 9.601562 20.101562 10.398438 20.101562 10.800781 19.800781 Z M 10.800781 19.800781 "/>
<path style=" stroke:none;fill-rule:nonzero;fill:rgb(39.607843%,60.392157%,82.352941%);fill-opacity:1;" d="M 18.800781 5 C 18.699219 4.800781 18.5 4.5 18.199219 4.398438 L 10.800781 0.199219 C 10.398438 0 9.699219 0 9.199219 0.199219 L 1.800781 4.398438 C 1.398438 4.699219 1 5.300781 1 5.800781 L 1 14.300781 C 1 14.5 1.101562 14.800781 1.199219 15.101562 L 10 10.101562 Z M 18.800781 5 "/>
<path style=" stroke:none;fill-rule:nonzero;fill:rgb(100%,100%,100%);fill-opacity:1;" d="M 10 15.898438 C 6.699219 15.898438 4 13.199219 4 10 C 4 6.699219 6.699219 4.101562 10 4.101562 C 12.101562 4.101562 14.101562 5.199219 15.199219 7.101562 L 12.601562 8.601562 C 12.101562 7.601562 11.101562 7 10 7 C 8.300781 7 7 8.300781 7 10 C 7 11.601562 8.300781 13 10 13 C 11.101562 13 12.101562 12.398438 12.601562 11.5 L 15.199219 13 C 14.101562 14.800781 12.101562 15.898438 10 15.898438 Z M 10 15.898438 "/>
<path style=" stroke:none;fill-rule:nonzero;fill:rgb(100%,100%,100%);fill-opacity:1;" d="M 16 9.699219 L 15.300781 9.699219 L 15.300781 9 L 14.601562 9 L 14.601562 9.699219 L 14 9.699219 L 14 10.398438 L 14.699219 10.398438 L 14.699219 11 L 15.398438 11 L 15.398438 10.300781 L 16 10.300781 Z M 16 9.699219 "/>
<path style=" stroke:none;fill-rule:nonzero;fill:rgb(100%,100%,100%);fill-opacity:1;" d="M 18.5 9.699219 L 17.800781 9.699219 L 17.800781 9 L 17.101562 9 L 17.101562 9.699219 L 16.398438 9.699219 L 16.398438 10.398438 L 17.101562 10.398438 L 17.101562 11 L 17.800781 11 L 17.800781 10.300781 L 18.5 10.300781 Z M 18.5 9.699219 "/>
</g>
</svg>
