<?xml version="1.0" encoding="utf-8"?>
<svg version="1.1" id="Gopher" xmlns="http://www.w3.org/2000/svg" xmlns:xlink="http://www.w3.org/1999/xlink" x="0px" y="0px"
	 viewBox="0 0 20 20" style="enable-background:new 0 0 20 20;" xml:space="preserve">
<style type="text/css">
	.st0{fill:#F6D2A3;stroke:#000000;stroke-width:0.475;stroke-linecap:round;stroke-linejoin:round;stroke-miterlimit:10;}
	.st1{fill:none;stroke:#000000;stroke-width:0.475;stroke-linecap:round;stroke-linejoin:round;stroke-miterlimit:10;}
	.st2{fill:#75CDDD;stroke:#000000;stroke-width:0.475;stroke-linecap:round;stroke-linejoin:round;stroke-miterlimit:10;}
	.st3{fill:#FFFFFF;stroke:#000000;stroke-width:0.475;stroke-linecap:round;stroke-linejoin:round;stroke-miterlimit:10;}
	.st4{fill:#FFFFFF;}
</style>
<g>
	<path class="st0" d="M4.7,9.8C4.3,9.9,3.8,10,3.5,10.2c-0.2,0.1-0.2,0.6,0,0.8c0.2,0.2,0.4,0.2,0.6,0.1c0.2-0.1,0.4-0.2,0.6-0.4
		c0-0.2,0-0.3,0-0.5C4.7,10,4.7,9.9,4.7,9.8z"/>
	<path class="st0" d="M17.2,10c-0.2-0.1-0.7-0.3-1.1-0.3c0,0.2,0,0.5,0,0.7c0,0,0,0.1,0,0.1c0.2,0.1,0.3,0.3,0.4,0.3
		c0.3,0.1,0.5,0.1,0.6-0.1C17.4,10.6,17.4,10.2,17.2,10z"/>
	<path class="st0" d="M5.1,18.7c-0.3,0.6,0.5,1,0.9,0.6c0.4-0.3,0.6-0.6,1.2-0.7C6.8,18.5,6.4,18.2,6,18C5.6,18.1,5.3,18.4,5.1,18.7
		z"/>
	<path class="st0" d="M14.7,19.2c0.4,0.5,1.2,0,1-0.6c-0.2-0.4-0.5-0.7-0.9-0.9c-0.3,0.2-0.6,0.5-1,0.7
		C14.3,18.6,14.5,18.9,14.7,19.2z"/>
	<path class="st1" d="M3.4,10.9c0.1-0.1,0.2-0.2,0.4-0.3"/>
	<path class="st1" d="M17.3,10.7c-0.1-0.1-0.2-0.2-0.4-0.3"/>
	<path class="st1" d="M5.2,19.4c0-0.2,0.1-0.4,0.4-0.7"/>
	<path class="st1" d="M15.5,19.3c0-0.2,0-0.5-0.3-0.7"/>
	<path class="st2" d="M4.6,2.8c0-0.2,0.2-0.4,0.4-0.4c0.1,0,0.2,0.1,0.3,0.2C5.5,2.3,5.7,2,6,1.8C5.9,1.7,5.7,1.6,5.3,1.6
		c-1-0.1-1.5,0.4-1.6,1c-0.1,0.6,0.2,1.3,1,1.5C4.8,3.8,4.9,3.5,5,3.2C4.8,3.2,4.6,3,4.6,2.8z"/>
	<path d="M5,2.4c-0.2,0-0.4,0.2-0.4,0.4C4.6,3,4.8,3.2,5,3.2C5.1,3,5.2,2.9,5.3,2.7c0,0,0-0.1,0.1-0.1C5.3,2.5,5.1,2.4,5,2.4z"/>
	<path class="st2" d="M16.7,2.3c-0.1-0.7-0.6-1.2-1.6-1c-0.3,0-0.6,0.1-0.7,0.3C14.6,1.8,14.8,2,15,2.2c0,0,0,0,0,0
		c0.1-0.1,0.2-0.2,0.3-0.2c0.2,0,0.4,0.2,0.4,0.4c0,0.2-0.1,0.4-0.3,0.4c0.1,0.3,0.3,0.6,0.3,0.9C16.5,3.6,16.8,2.9,16.7,2.3z"/>
	<path d="M15.8,2.5c0-0.2-0.2-0.4-0.4-0.4c-0.1,0-0.3,0.1-0.3,0.2c0.2,0.2,0.3,0.4,0.4,0.6C15.6,2.9,15.8,2.7,15.8,2.5z"/>
	<path class="st2" d="M15,2.3C15,2.3,15,2.3,15,2.3c-0.2-0.3-0.4-0.5-0.7-0.7c-1-0.8-2.2-1.1-4-1.1C8.8,0.6,7.1,0.8,6,1.8
		C5.7,2,5.5,2.3,5.3,2.6c0,0,0,0.1-0.1,0.1C5.2,2.9,5.1,3,5,3.2C4.9,3.5,4.8,3.8,4.7,4.1C4.6,4.7,4.5,5.4,4.5,6.2
		c0,1.5,0.3,2.2,0.3,3.6c0,0.1,0,0.2,0,0.3c0,0.2,0,0.3,0,0.5c-0.1,1.7,0,3.4,0,4.6c0,1.1,0.5,2,1.4,2.7c0.3,0.3,0.8,0.5,1.2,0.7
		c0.8,0.3,1.8,0.5,2.9,0.5c1.6,0,2.8-0.3,3.7-0.8c0.4-0.2,0.7-0.4,1-0.7c0.7-0.6,1-1.3,1.2-2c0.4-1.6,0.3-2.7,0.2-5.1
		c0,0,0-0.1,0-0.1c0-0.3,0-0.5,0-0.7c-0.1-1.2,0-1.8,0-3.1c0-1.2-0.1-2-0.3-2.8c-0.1-0.3-0.2-0.6-0.3-0.9C15.3,2.7,15.2,2.5,15,2.3z
		"/>
	<ellipse class="st3" cx="7.9" cy="3.4" rx="1.8" ry="1.7"/>
	<circle cx="7" cy="3.5" r="0.6"/>
	<circle class="st4" cx="7.3" cy="3.6" r="0.2"/>
	<ellipse class="st3" cx="12.4" cy="3.2" rx="1.8" ry="1.7"/>
	<circle cx="11.5" cy="3.3" r="0.6"/>
	<circle class="st4" cx="11.7" cy="3.4" r="0.2"/>
	<path class="st3" d="M10.2,5.9c-0.3,0-0.4,0.2-0.7,0.2c0,0.2,0,0.4,0,0.7c0,0.7,0.8,0.5,0.8,0.1C10.3,6.7,10.3,6.2,10.2,5.9
		C10.3,5.9,10.3,5.9,10.2,5.9z"/>
	<path class="st3" d="M10.3,7c0,0.4,0.8,0.5,0.8-0.1c0-0.3,0-0.6,0-0.8c-0.4,0-0.4-0.2-0.8-0.2C10.3,6.2,10.3,6.7,10.3,7z"/>
	<path class="st0" d="M11.5,5.3C11.4,5.1,11.2,5,11,5c-0.1,0.2-0.4,0.3-0.8,0.3C9.9,5.3,9.6,5.2,9.5,5c-0.2,0-0.4,0.1-0.6,0.3
		C8.6,5.6,8.8,6.1,9.2,6.2c0.2,0,0.3,0,0.4,0c0.3-0.1,0.4-0.2,0.7-0.2c0,0,0,0,0.1,0c0.3,0,0.4,0.2,0.8,0.2c0.1,0,0.2,0,0.3,0
		C11.7,6.1,11.8,5.6,11.5,5.3z"/>
	<path d="M10.2,5.3c0.3,0,0.6-0.1,0.8-0.3C11,4.9,11,4.9,11,4.8c0-0.3-0.4-0.5-0.8-0.5c-0.5,0-0.8,0.2-0.8,0.5c0,0.1,0,0.1,0.1,0.2
		C9.6,5.2,9.9,5.3,10.2,5.3z"/>
</g>
</svg>
