<?xml version="1.0" encoding="UTF-8"?>
<svg xmlns="http://www.w3.org/2000/svg" xmlns:xlink="http://www.w3.org/1999/xlink" width="20px" height="20px" viewBox="0 0 20 20" version="1.1">
<defs>
<linearGradient id="linear0" gradientUnits="userSpaceOnUse" x1="55.549179" y1="77.070274" x2="110.14919" y2="131.85291" gradientTransform="matrix(0.181818,0,0,0.181818,-8.170455,-12.267045)">
<stop offset="0" style="stop-color:rgb(21.960784%,49.411765%,72.156863%);stop-opacity:1;"/>
<stop offset="1" style="stop-color:rgb(21.176471%,41.176471%,58.039216%);stop-opacity:1;"/>
</linearGradient>
<linearGradient id="linear1" gradientUnits="userSpaceOnUse" x1="89.136749" y1="111.92053" x2="147.77737" y2="168.1012" gradientTransform="matrix(0.181818,0,0,0.181818,-8.170455,-12.267045)">
<stop offset="0" style="stop-color:rgb(100%,87.843137%,32.156863%);stop-opacity:1;"/>
<stop offset="1" style="stop-color:rgb(100%,76.470588%,19.215686%);stop-opacity:1;"/>
</linearGradient>
</defs>
<g id="surface1">
<path style=" stroke:none;fill-rule:nonzero;fill:url(#linear0);" d="M 9.964844 0 C 4.871094 0 5.1875 2.210938 5.1875 2.210938 L 5.191406 4.5 L 10.058594 4.5 L 10.058594 5.1875 L 3.261719 5.1875 C 3.261719 5.1875 0 4.816406 0 9.960938 C 0 15.101562 2.847656 14.921875 2.847656 14.921875 L 4.546875 14.921875 L 4.546875 12.535156 C 4.546875 12.535156 4.453125 9.6875 7.347656 9.6875 C 10.238281 9.6875 12.171875 9.6875 12.171875 9.6875 C 12.171875 9.6875 14.878906 9.730469 14.878906 7.066406 C 14.878906 4.40625 14.878906 2.664062 14.878906 2.664062 C 14.878906 2.664062 15.292969 0 9.964844 0 Z M 7.285156 1.539062 C 7.769531 1.539062 8.160156 1.929688 8.160156 2.414062 C 8.160156 2.898438 7.769531 3.289062 7.285156 3.289062 C 6.800781 3.289062 6.410156 2.898438 6.410156 2.414062 C 6.410156 1.929688 6.800781 1.539062 7.285156 1.539062 Z M 7.285156 1.539062 "/>
<path style=" stroke:none;fill-rule:nonzero;fill:url(#linear1);" d="M 10.109375 19.972656 C 15.207031 19.972656 14.890625 17.761719 14.890625 17.761719 L 14.882812 15.472656 L 10.019531 15.472656 L 10.019531 14.785156 L 16.816406 14.785156 C 16.816406 14.785156 20.078125 15.15625 20.078125 10.011719 C 20.078125 4.871094 17.230469 5.050781 17.230469 5.050781 L 15.53125 5.050781 L 15.53125 7.4375 C 15.53125 7.4375 15.621094 10.285156 12.730469 10.285156 C 9.835938 10.285156 7.90625 10.285156 7.90625 10.285156 C 7.90625 10.285156 5.195312 10.242188 5.195312 12.902344 C 5.195312 15.566406 5.195312 17.308594 5.195312 17.308594 C 5.195312 17.308594 4.785156 19.972656 10.109375 19.972656 Z M 12.792969 18.433594 C 12.308594 18.433594 11.917969 18.042969 11.917969 17.558594 C 11.917969 17.074219 12.308594 16.683594 12.792969 16.683594 C 13.277344 16.683594 13.667969 17.074219 13.667969 17.558594 C 13.667969 18.042969 13.277344 18.433594 12.792969 18.433594 Z M 12.792969 18.433594 "/>
</g>
</svg>
