<?xml version="1.0" encoding="utf-8"?>
<svg version="1.1" id="Layer_1" xmlns="http://www.w3.org/2000/svg" xmlns:xlink="http://www.w3.org/1999/xlink" x="0px" y="0px" viewBox="0 0 20 20" style="enable-background:new 0 0 20 20;" xml:space="preserve">
<style type="text/css">
	.st0{fill:#F7DF1E;}
</style>
<g>
	<rect class="st0" width="20" height="20"/>
	<path d="M13.4,15.6c0.4,0.7,0.9,1.1,1.9,1.1c0.8,0,1.3-0.4,1.3-0.9c0-0.6-0.5-0.9-1.4-1.2l-0.5-0.2c-1.4-0.6-2.3-1.3-2.3-2.8
		c0-1.4,1.1-2.5,2.8-2.5c1.2,0,2.1,0.4,2.7,1.5l-1.5,0.9c-0.3-0.6-0.7-0.8-1.2-0.8c-0.6,0-0.9,0.3-0.9,0.8c0,0.6,0.3,0.8,1.2,1.1
		l0.5,0.2c1.6,0.7,2.5,1.4,2.5,3c0,1.7-1.3,2.6-3.1,2.6c-1.7,0-2.9-0.8-3.4-1.9L13.4,15.6z M6.8,15.8c0.3,0.5,0.6,1,1.2,1
		c0.6,0,1-0.2,1-1.2V9.2h1.9v6.4c0,1.9-1.1,2.8-2.8,2.8c-1.5,0-2.4-0.8-2.8-1.7L6.8,15.8z"/>
</g>
</svg>
