<?xml version="1.0" encoding="utf-8"?>
<svg version="1.1" id="Layer_1" xmlns="http://www.w3.org/2000/svg" xmlns:xlink="http://www.w3.org/1999/xlink" x="0px" y="0px" viewBox="0 0 20 20" style="enable-background:new 0 0 20 20;" xml:space="preserve">
<style type="text/css">
	.st0{fill:#000000;}
	.st1{fill-rule:evenodd;clip-rule:evenodd;fill:#000000;}
</style>
<path class="st0" d="M10,1c-5,0-9,4-9,9s4.1,9,9,9s9-4.1,9-9S15,1,10,1z M10,1.8c0.3,0,0.6,0.3,0.6,0.6S10.3,3,10,3S9.4,2.7,9.4,2.4
	C9.4,2,9.6,1.8,10,1.8L10,1.8z M11.3,2.7c2.1,0.4,3.9,1.7,5,3.6l-0.7,1.6c-0.1,0.3,0,0.6,0.3,0.7l1.4,0.6c0,0.4,0,0.8,0,1.3h-0.8
	c-0.1,0-0.1,0-0.1,0.1v0.3c0,0.8-0.5,1-0.9,1s-0.8-0.2-0.9-0.4c-0.2-1.3-0.6-1.5-1.2-2c0.9-0.4,1.6-1.1,1.6-2c0-1-0.7-1.6-1.1-1.9
	C13.2,5.1,12.5,5,12.3,5H4.5C5.6,3.8,7,3,8.6,2.7l0.9,1c0.2,0.2,0.5,0.2,0.8,0L11.3,2.7z M2.9,7.1c0.3,0,0.6,0.3,0.6,0.6
	c0,0.3-0.3,0.6-0.6,0.6S2.3,8,2.3,7.7C2.3,7.4,2.5,7.1,2.9,7.1L2.9,7.1z M17.1,7.2c0.3,0,0.6,0.3,0.6,0.6s-0.3,0.6-0.6,0.6
	c-0.3,0-0.6-0.3-0.6-0.6C16.5,7.4,16.7,7.2,17.1,7.2L17.1,7.2z M4,7.3h1V12H3c-0.3-1-0.4-1.9-0.3-2.9L4,8.6c0.3-0.1,0.4-0.4,0.3-0.7
	L4,7.3z M8.3,7.3h2.5c0.1,0,0.9,0.1,0.9,0.7c0,0.5-0.6,0.7-1.1,0.7H8.3V7.3z M8.3,10.7h1.9c0.2,0,0.9,0,1.2,1
	c0.1,0.3,0.2,1.3,0.4,1.6c0.1,0.3,0.6,1,1.1,1H16c-0.2,0.3-0.4,0.5-0.7,0.8L14,14.8c-0.3-0.1-0.6,0.1-0.6,0.4L13,16.6
	c-1.9,0.9-4.2,0.9-6.1,0l-0.3-1.4c-0.1-0.3-0.4-0.5-0.6-0.4L4.7,15c-0.2-0.2-0.4-0.5-0.6-0.8h6c0.1,0,0.1,0,0.1-0.1V12
	c0-0.1,0-0.1-0.1-0.1H8.3V10.7z M5.6,15.5c0.3,0,0.6,0.3,0.6,0.6c0,0.3-0.3,0.6-0.6,0.6S5,16.4,5,16.1C5,15.8,5.2,15.5,5.6,15.5
	L5.6,15.5z M14.4,15.6c0.3,0,0.6,0.3,0.6,0.6c0,0.3-0.3,0.6-0.6,0.6s-0.6-0.3-0.6-0.6C13.8,15.8,14,15.6,14.4,15.6
	C14.4,15.5,14.4,15.6,14.4,15.6z"/>
<g>
	<path class="st1" d="M18.5,10c0,4.7-3.8,8.5-8.5,8.5S1.5,14.7,1.5,10l0,0c0-4.7,3.8-8.5,8.5-8.5S18.5,5.3,18.5,10L18.5,10z
		 M18.4,9.2l1.3,0.8l-1.3,0.8l1.1,1.1L18,12.4l0.9,1.3L17.4,14l0.7,1.4l-1.6-0.1l0.4,1.5l-1.5-0.4l0.1,1.6L14,17.4L13.7,19l-1.3-0.9
		l-0.5,1.5l-1.1-1.1L10,19.7l-0.8-1.3l-1.1,1.1L7.6,18l-1.3,1L6,17.4l-1.4,0.7l0.1-1.6l-1.5,0.4l0.4-1.5L2,15.5L2.6,14L1,13.7
		l0.9-1.3l-1.5-0.5l1.1-1.1L0.3,10l1.3-0.8L0.5,8.1L2,7.6L1,6.3L2.6,6L1.9,4.6l1.6,0.1L3.1,3.1l1.5,0.4V1.9L6,2.6L6.3,1l1.3,0.9
		l0.5-1.5l1.1,1.1L10,0.3l0.8,1.3l1.1-1.1L12.4,2l1.3-1L14,2.6l1.4-0.7l-0.1,1.6l1.5-0.4l-0.4,1.5L18,4.5L17.4,6L19,6.3l-0.9,1.3
		l1.5,0.5L18.4,9.2z"/>
	<path class="st0" d="M10,20c-0.1,0-0.2-0.1-0.2-0.1l-0.6-1l-0.8,0.9c-0.1,0.1-0.2,0.1-0.3,0.1c-0.1,0-0.2-0.1-0.2-0.2l-0.4-1.1
		l-1,0.7c-0.1,0.1-0.2,0.1-0.3,0C6.1,19.2,6,19.1,6,19l-0.2-1.2l-1.1,0.5c-0.1,0-0.2,0-0.3,0c-0.1-0.1-0.1-0.1-0.1-0.2v-1.2
		l-1.2,0.3c-0.1,0-0.2,0-0.3-0.1s-0.1-0.2-0.1-0.3L3,15.6H1.8c-0.1,0-0.2,0-0.2-0.1c-0.1-0.1-0.1-0.2,0-0.3l0.5-1.1L1,14
		c-0.1,0-0.2-0.1-0.2-0.2c0-0.1,0-0.2,0-0.3l0.7-1l-1.1-0.4c-0.1,0-0.2-0.1-0.2-0.2s0-0.2,0.1-0.3l0.9-0.8l-1-0.6
		C0.1,10.2,0,10.1,0,10s0.1-0.2,0.1-0.2l1-0.6L0.3,8.3C0.2,8.2,0.2,8.1,0.2,8c0-0.1,0.1-0.2,0.2-0.2l1.1-0.4l-0.7-1
		c-0.1-0.1-0.1-0.2,0-0.3C0.8,6.1,0.9,6,1,6l1.2-0.2L1.7,4.7c0-0.1,0-0.2,0-0.3c0.1-0.1,0.1-0.1,0.2-0.1h1.2L2.9,3.2
		c0-0.1,0-0.2,0.1-0.3c0,0,0.1-0.1,0.2,0l1.2,0.3V2c0-0.1,0-0.2,0.1-0.2c0.1-0.1,0.2-0.1,0.3,0l1.1,0.5L6,1c0-0.1,0.1-0.2,0.2-0.2
		s0.2,0,0.3,0l1,0.7l0.4-1.1C7.9,0.3,8,0.2,8,0.2c0.1,0,0.2,0,0.3,0.1l0.8,0.9l0.6-1C9.8,0.1,9.9,0,10,0s0.2,0.1,0.2,0.1l0.6,1
		l0.8-0.9c0.1-0.1,0.2-0.1,0.3-0.1s0.2,0.1,0.2,0.2l0.4,1.1l1-0.7c0.1-0.1,0.2-0.1,0.3,0C13.9,0.8,14,0.9,14,1l0.2,1.2l1.1-0.5
		c0.1,0,0.2,0,0.3,0c0.1,0.1,0.1,0.1,0.1,0.2v1.2l1.2-0.3c0.1,0,0.2,0,0.3,0.1c0.1,0.1,0.1,0.2,0.1,0.3L17,4.4h1.2
		c0.1,0,0.2,0,0.2,0.1c0.1,0.1,0.1,0.2,0,0.3l-0.5,1.1L19,6c0.1,0,0.2,0.1,0.2,0.2s0,0.2,0,0.3l-0.7,1l1.1,0.4
		c0.1,0,0.2,0.1,0.2,0.2s0,0.2-0.1,0.3l-0.9,0.8l1,0.6c0.1,0,0.2,0.1,0.2,0.2s-0.1,0.2-0.1,0.2l-1,0.6l0.9,0.8
		c0.1,0.1,0.1,0.2,0.1,0.3s-0.1,0.2-0.2,0.2l-1.1,0.4l0.7,1c0.1,0.1,0.1,0.2,0,0.3c0,0.1-0.1,0.2-0.2,0.2l-1.2,0.2l0.5,1.1
		c0,0.1,0,0.2,0,0.3c-0.1,0.1-0.2,0.1-0.2,0.1H17l0.3,1.2c0,0.1,0,0.2-0.1,0.3c-0.1,0.1-0.2,0.1-0.3,0.1L15.7,17v1.2
		c0,0.1,0,0.2-0.1,0.2c-0.1,0.1-0.2,0.1-0.3,0l-1.1-0.5L14,19c0,0.1-0.1,0.2-0.2,0.2c-0.1,0-0.2,0-0.3,0l-1-0.7l-0.4,1.1
		c0,0.1-0.1,0.2-0.2,0.2c-0.1,0-0.2,0-0.3-0.1l-0.8-0.9l-0.6,1C10.2,19.9,10.1,20,10,20z M9.8,18.8l0.2,0.3l0.2-0.3
		C10.1,18.8,9.9,18.8,9.8,18.8z M11.5,18.7l0.3,0.3l0.1-0.4C11.8,18.6,11.7,18.7,11.5,18.7z M8.1,18.6L8.2,19l0.3-0.3
		C8.3,18.7,8.2,18.6,8.1,18.6z M13.2,18.2l0.3,0.2l0.1-0.4C13.4,18.1,13.3,18.2,13.2,18.2z M6.4,18.1l0.1,0.4l0.3-0.2
		C6.7,18.2,6.6,18.1,6.4,18.1z M9.4,18.2c0.4,0,0.8,0,1.2,0l0,0c0-0.1,0.1-0.1,0.2-0.1c0.1,0,0.2,0,0.2,0.1l0,0
		c0.4,0,0.8-0.1,1.1-0.2l0,0c0-0.1,0.1-0.1,0.2-0.2c0.1,0,0.2,0,0.3,0l0,0c0.4-0.1,0.7-0.3,1.1-0.4l0,0c0-0.1,0.1-0.2,0.1-0.2
		c0.1,0,0.2,0,0.3,0l0,0c0.3-0.2,0.7-0.4,1-0.6l0,0c0-0.1,0-0.2,0.1-0.2s0.2-0.1,0.2-0.1l0,0c0.3-0.3,0.6-0.5,0.8-0.8l0,0
		c0-0.1,0-0.2,0.1-0.2c0.1-0.1,0.1-0.1,0.2-0.1l0,0c0.2-0.3,0.5-0.6,0.6-1l0,0c0-0.1,0-0.2,0-0.3s0.1-0.1,0.2-0.1l0,0
		c0.2-0.3,0.3-0.7,0.4-1.1l0,0c-0.1-0.1-0.1-0.2,0-0.3c0-0.1,0.1-0.2,0.2-0.2l0,0c0.1-0.4,0.2-0.7,0.2-1.1l0,0C18,11,18,11,18,10.9
		c0-0.1,0.1-0.2,0.1-0.2l0,0c0-0.2,0-0.4,0-0.6s0-0.4,0-0.6l0,0C18,9.5,18,9.4,18,9.3c0-0.1,0-0.2,0.1-0.2l0,0
		c0-0.4-0.1-0.8-0.2-1.1l0,0c-0.1,0-0.1-0.1-0.2-0.2c0-0.1,0-0.2,0-0.3l0,0c-0.1-0.4-0.3-0.7-0.4-1.1l0,0c-0.1,0-0.2-0.1-0.2-0.1
		c0-0.1,0-0.2,0-0.3l0,0c-0.2-0.3-0.4-0.7-0.6-1l0,0c-0.1,0-0.2,0-0.2-0.1c-0.1-0.1-0.1-0.2-0.1-0.2l0,0C16,4.3,15.7,4,15.4,3.8l0,0
		c-0.1,0-0.2,0-0.2-0.1c-0.1-0.1-0.1-0.1-0.1-0.2l0,0c-0.3-0.2-0.6-0.5-1-0.6l0,0c-0.1,0-0.2,0-0.3,0s-0.1-0.1-0.1-0.2l0,0
		c-0.3-0.2-0.7-0.3-1.1-0.4l0,0c-0.1,0.1-0.2,0.1-0.3,0c-0.1,0-0.2-0.1-0.2-0.2l0,0C11.7,2,11.4,1.9,11,1.9l0,0
		C10.9,2,10.9,2,10.8,2c-0.1,0-0.2-0.1-0.2-0.1l0,0c-0.4,0-0.8,0-1.2,0l0,0C9.4,2,9.3,2,9.2,2C9.1,1.9,9,1.9,9,1.8l0,0
		C8.6,1.9,8.2,1.9,7.8,2l0,0c0,0.1-0.1,0.1-0.2,0.2c-0.1,0-0.2,0-0.3,0l0,0C7,2.3,6.7,2.4,6.3,2.6l0,0c0,0.1-0.1,0.2-0.1,0.2
		c-0.1,0-0.2,0-0.3,0l0,0C5.6,3,5.2,3.2,4.9,3.5l0,0c0,0.1,0,0.2-0.1,0.2c0,0.1-0.1,0.1-0.2,0.1l0,0C4.3,4,4,4.3,3.8,4.6l0,0
		c0,0.1,0,0.2-0.1,0.2c0,0.1-0.1,0.1-0.2,0.1l0,0C3.2,5.2,3,5.6,2.8,5.9l0,0c0,0.1,0,0.2,0,0.3c0,0.1-0.1,0.1-0.2,0.1l0,0
		C2.4,6.7,2.3,7,2.2,7.4l0,0c0.1,0.1,0.1,0.2,0,0.3c0,0.1-0.1,0.2-0.2,0.2l0,0C1.9,8.2,1.9,8.6,1.8,9l0,0c0.1,0,0.1,0.1,0.1,0.2
		c0,0.1-0.1,0.2-0.1,0.2l0,0c0,0.2,0,0.4,0,0.6s0,0.4,0,0.6l0,0c0.1,0,0.1,0.1,0.1,0.2c0,0.1,0,0.2-0.1,0.2l0,0
		c0,0.4,0.1,0.8,0.2,1.1l0,0c0.1,0,0.1,0.1,0.2,0.2c0,0.1,0,0.2,0,0.3l0,0c0.1,0.4,0.3,0.7,0.4,1.1l0,0c0.1,0,0.2,0.1,0.2,0.1
		c0,0.1,0,0.2,0,0.3l0,0c0.2,0.3,0.4,0.7,0.6,1l0,0c0.1,0,0.2,0,0.2,0.1c0.1,0.1,0.1,0.2,0.1,0.2l0,0C4,15.7,4.3,16,4.6,16.2l0,0
		c0.1,0,0.2,0,0.2,0.1c0.1,0.1,0.1,0.1,0.1,0.2l0,0c0.3,0.2,0.6,0.5,1,0.6l0,0c0.1,0,0.2,0,0.3,0c0.1,0,0.1,0.1,0.1,0.2l0,0
		c0.3,0.2,0.7,0.3,1.1,0.4l0,0c0.1-0.1,0.2-0.1,0.3,0c0.1,0,0.2,0.1,0.2,0.2l0,0C8.3,18,8.6,18.1,9,18.1l0,0C9.1,18,9.1,18,9.2,18
		C9.3,18.1,9.4,18.2,9.4,18.2L9.4,18.2z M14.7,17.5l0.4,0.2v-0.4C15,17.3,14.8,17.4,14.7,17.5z M4.9,17.2v0.4l0.4-0.2
		C5.2,17.4,5,17.3,4.9,17.2z M3.6,16.1l-0.1,0.4l0.4-0.1C3.8,16.3,3.7,16.2,3.6,16.1z M16.1,16.4l0.4,0.1l-0.1-0.4
		C16.3,16.2,16.2,16.3,16.1,16.4z M17.2,15.1h0.4l-0.2-0.4C17.4,14.8,17.3,15,17.2,15.1z M2.5,14.7l-0.2,0.4h0.4
		C2.7,15,2.6,14.8,2.5,14.7z M1.5,13.5l0.4,0.1c-0.1-0.1-0.1-0.3-0.2-0.4L1.5,13.5z M18.2,13.2c-0.1,0.1-0.1,0.3-0.2,0.4l0.4-0.1
		L18.2,13.2z M18.7,11.5c0,0.1-0.1,0.3-0.1,0.4l0.4-0.1L18.7,11.5z M1,11.8l0.4,0.1c0-0.1-0.1-0.3-0.1-0.4L1,11.8z M18.8,9.8
		c0,0.1,0,0.1,0,0.2s0,0.1,0,0.2l0.3-0.2L18.8,9.8z M0.8,10l0.3,0.2c0-0.1,0-0.1,0-0.2s0-0.1,0-0.2L0.8,10z M1,8.2l0.3,0.3
		c0-0.1,0.1-0.3,0.1-0.4L1,8.2z M18.6,8.1c0,0.1,0.1,0.3,0.1,0.4L19,8.2L18.6,8.1z M18.1,6.4c0.1,0.1,0.1,0.3,0.2,0.4l0.2-0.3
		L18.1,6.4z M1.5,6.5l0.2,0.3c0.1-0.1,0.1-0.3,0.2-0.4L1.5,6.5z M17.2,4.9c0.1,0.1,0.2,0.2,0.2,0.4l0.2-0.4H17.2z M2.4,4.9l0.2,0.4
		c0-0.1,0.1-0.3,0.2-0.4H2.4z M3.5,3.5l0.1,0.4c0.1-0.1,0.2-0.2,0.3-0.3L3.5,3.5z M16.1,3.6c0.1,0.1,0.2,0.2,0.3,0.3l0.1-0.4
		L16.1,3.6z M14.7,2.5c0.1,0.1,0.2,0.2,0.4,0.2V2.3L14.7,2.5z M4.9,2.4v0.4C5,2.7,5.2,2.6,5.3,2.5L4.9,2.4z M13.2,1.8
		c0.1,0.1,0.3,0.1,0.4,0.2l-0.1-0.4L13.2,1.8z M6.5,1.5L6.4,1.9c0.1-0.1,0.3-0.1,0.4-0.2L6.5,1.5z M11.5,1.3c0.1,0,0.3,0.1,0.4,0.1
		L11.8,1L11.5,1.3z M8.2,1L8.1,1.4c0.1,0,0.3-0.1,0.4-0.1L8.2,1z M10,1.2c0.1,0,0.1,0,0.2,0L10,0.8L9.8,1.2C9.9,1.2,9.9,1.2,10,1.2z
		"/>
</g>
</svg>
